<?xml version="1.0" encoding="UTF-8" standalone="no"?>
<svg
   version="1.0"
   viewBox="0 0 484.000000 222.000000"
   preserveAspectRatio="xMidYMid meet"
   id="svg80"
   sodipodi:docname="logo.svg"
   inkscape:version="1.2.2 (b0a8486541, 2022-12-01)"
   xmlns:inkscape="http://www.inkscape.org/namespaces/inkscape"
   xmlns:sodipodi="http://sodipodi.sourceforge.net/DTD/sodipodi-0.dtd"
   xmlns="http://www.w3.org/2000/svg"
   xmlns:svg="http://www.w3.org/2000/svg">
  <defs
     id="defs84" />
  <sodipodi:namedview
     id="namedview82"
     pagecolor="#505050"
     bordercolor="#eeeeee"
     borderopacity="1"
     inkscape:showpageshadow="0"
     inkscape:pageopacity="0"
     inkscape:pagecheckerboard="0"
     inkscape:deskcolor="#505050"
     inkscape:document-units="pt"
     showgrid="false"
     inkscape:zoom="1.3775826"
     inkscape:cx="218.49869"
     inkscape:cy="206.15823"
     inkscape:window-width="1920"
     inkscape:window-height="1058"
     inkscape:window-x="1920"
     inkscape:window-y="22"
     inkscape:window-maximized="1"
     inkscape:current-layer="g78" />
  <g
     transform="translate(0.000000,222.000000) scale(0.100000,-0.100000)"
     fill="#000000"
     stroke="none"
     id="g78">
    <path
       id="path60"
       d="M 2730,2160 V 1544.0039 926.99707 l -44.0039,41.00098 c -137.9999,126.99985 -361.9952,50.99495 -424.9951,-145.00489 -17,-52.99994 -22.9981,-95.00007 -22.9981,-165 -1,-160.99983 43.9972,-258.99811 146.9971,-322.99804 41,-24.99998 60.9991,-30.98829 123.999,-32.98828 89.9999,-4 133.0059,10.98833 186.0059,62.98828 L 2730,401.00098 v -45.9961 -45 h 90 90 V 1234.9951 2160 h -90 z m 370.0049,0 v -85.0049 -84.9902 h 90 90 V 2074.9951 2160 h -90 z m -2550.00002,-2.0068 c -150.99985,2 -278.01172,1.0009 -282.01172,-3.9991 -4.99999,-4 -7.99804,-218.0012 -7.99804,-476.0009 V 1210.0049 H 360 460.00488 V 1395 1579.9951 h 129.99024 c 148.99985,0 190.01173,-11.001 207.01172,-56.001 5.99999,-15.9999 14.99512,-87.9903 19.99511,-159.9902 6,-71.9999 12.99219,-136.002 16.99219,-142.0019 8.99999,-15 216.00586,-17.0069 216.00586,-2.0069 0,6 -8.0068,22.002 -17.0068,37.002 -13,19 -17.9981,57.9971 -22.9981,161.997 -3,75 -11.98827,146.0127 -17.98826,158.0127 -6,12 -30.00198,36.9864 -52.00196,55.9864 L 899.00391,1667.0068 930,1680 c 56.99994,24 109.9951,124.004 109.9951,209.0039 0,96.9999 -68.99715,200.9922 -161.99705,241.9922 -49.99995,22 -65.99343,22.9971 -327.99317,26.9971 z M 3450,2149.9951 V 1680 1210.0049 h 90 90 v 107.9883 108.0029 l 40.0049,39.0088 c 28,27 42.9883,35.9931 47.9883,27.9931 4,-5.9999 41.002,-72.9971 82.0019,-146.997 l 75,-135.9961 h 108.0029 c 59,0 107.0069,2.9912 107.0069,5.9912 0,3 -54.0108,98.0001 -121.0108,210 -66.9999,111.9999 -119.0009,210.002 -116.0009,217.0019 2,6 55.001,67.004 116.0009,134.004 61,66.9999 111.0059,124.0019 111.0059,127.0019 0,3 -49.003,5.9912 -108.0029,5.9912 h -108.003 L 3750,1777.998 3634.9951,1645.0049 3632.0068,1897.998 3630,2149.9951 h -90 z M 460.00488,1990.0049 h 144.99024 c 110.99989,0 153.0049,-4 175.00488,-15 76.99992,-40 81.99797,-170.0098 7.99805,-215.0098 -28.99997,-18 -51.00013,-19.9951 -180,-19.9951 H 460.00488 v 124.9951 z m 987.62692,-65.127 c -52.1249,-3.125 -102.6279,-15.8809 -143.6279,-37.8808 -39,-20 -96.999,-83.9962 -123.999,-135.9961 -32,-65 -46.0068,-178.007 -32.0069,-272.0069 20,-141.9998 82.0041,-220.9893 209.004,-268.9892 78.9999,-30 205.9951,-25.0097 274.9951,9.9902 78.9999,39 157.998,130.9991 157.998,183.999 0,13 -13.9903,16.0108 -84.9902,16.0108 h -86.001 l -39.0088,-41.001 -38.9941,-41.001 -64.9951,3.9991 c -52,3 -71.0069,8.9931 -92.0069,27.9931 -33.9999,33 -53.9941,72.0098 -53.9941,110.0098 v 30 h 236.001 236.0009 l -4.0136,88.9892 c -3,75 -8.9913,98.9991 -35.9912,153.9991 -38,75.9999 -93.0011,129.0068 -161.001,152.0068 -47.5,16.5 -101.2442,23.0029 -153.3692,19.8779 z m 3042.2608,-1.04 c -116.203,6.8437 -228.8995,-27.085 -276.8994,-90.835 -23,-29.9999 -52.9981,-109.0098 -52.9981,-140.0097 0,-10 21.0079,-12.9932 88.0078,-12.9932 h 87.9932 l 13.0078,34.9951 c 17,48 59.002,68.0029 127.002,63.0029 61.9999,-4.9999 93.999,-27.998 93.999,-67.998 0,-39 -29.0011,-59.001 -101.001,-71.001 -153.9998,-26 -208.002,-40.9941 -247.0019,-68.9941 C 4089.0021,1474.005 4124.0031,1243 4278.0029,1200 c 88.9999,-24 172.9903,-8.0048 249.9903,49.9951 l 50.0097,37.9981 5.9912,-38.9942 6.0059,-38.9941 h 100.0049 c 105.9999,0 115.998,5.9932 82.998,42.9931 -16,17 -18.998,50.0013 -22.998,281.001 -5,249.9998 -6.0118,262.002 -27.0117,292.002 -28,38.9999 -54.9933,56.9922 -117.9932,76.9922 -37.25,11.75 -76.3731,18.5634 -115.1074,20.8447 z m -2173.8867,-6.8408 c -92.9999,3 -127.0001,-8.9923 -180,-61.9922 L 2100,1818.999 v 45.9961 45 h -90 -90 V 985.00488 60 h 90 90 v 615.99609 617.00681 l 44.0039,-41.0009 c 137.9999,-126.9999 361.9952,-50.995 424.9951,145.0048 17,53 22.9981,95.0001 22.9981,165 1,160.9999 -43.9972,258.9981 -146.9971,322.9981 -42,26 -58.9942,29.9922 -128.9941,31.9922 z m 783.999,-7.002 V 1560 1210.0049 h 90 90 V 1560 1909.9951 h -90 z M 1462.793,1776.0498 c 29.6874,0.6641 61.3281,-6.6748 83.2031,-21.0498 31,-20 63.999,-72.9971 63.999,-101.9971 0,-22.9999 -0.9952,-22.998 -139.9951,-22.998 h -139.9951 l 5.9912,27.9931 c 11,45 45.003,93.003 78.0029,108.003 13.875,6.375 30.9815,9.6504 48.794,10.0488 z m 801.5771,-16.8018 c 28.625,-2.25 55.6241,-9.2441 69.624,-20.2441 49,-38 70.0049,-94.9991 70.0049,-183.999 -1,-148.9999 -76.002,-231.0049 -187.0019,-205.0049 -80.9999,18 -117.9932,80.9952 -117.9932,199.9951 0,105.9999 31.001,178.0059 86.001,201.0059 20.5,8 50.7402,10.497 79.3652,8.247 z m 2300.625,-213.2519 3.0029,-53.9941 c 4,-74 -20.0029,-120.004 -78.0029,-149.004 -24,-12.9999 -58.9922,-22.998 -76.9922,-22.998 -42.9999,0 -82,35.002 -90,82.002 -8,52.9999 31.9982,91.9922 112.9981,106.9921 31.9999,7 74.999,18.0088 93.999,24.0088 z M 464.75098,1028.9941 c -31.24997,-0.5 -61.74905,-4.497 -82.74903,-11.997 -17.99998,-7 -54.00588,-29.00298 -81.00586,-48.00296 l -48.99902,-36.9873 -5.99121,38.99414 L 240,1009.9951 H 139.99512 c -105.999897,0 -115.998017,-5.9932 -82.99805,-42.99315 15.999984,-16.99998 18.998051,-50.0012 22.998047,-281.00097 4.999995,-249.99975 6.01174,-262.00199 27.011723,-292.00196 43.99995,-61.99993 134.99718,-96.00195 251.99707,-97.00195 180.99982,-1 282.00197,67.00112 307.00195,206.00098 L 671.99707,540 h -89.00391 -88.98925 l -13.00782,-34.99512 c -16.99998,-47.99995 -59.00202,-68.00292 -127.00195,-63.00293 -61.99994,5 -93.99902,27.99809 -93.99902,67.99805 0,38.99996 29.00105,59.00099 101.00097,71.00098 153.99985,25.99997 208.002,40.99417 247.00196,68.99414 132.99986,95.9999 97.99887,327.00492 -56.00098,370.00488 -23.99998,6.5 -55.99612,9.4941 -87.24609,8.9941 z m 2894.00392,0 c -43.25,1.75 -86.7588,-1.4902 -117.7588,-9.9902 -69.9999,-20.99997 -155.9912,-91.99908 -185.9912,-153.99902 -28,-60.99994 -25.0097,-65.00976 69.9902,-65.00976 h 86.001 l 39.0088,41.00097 38.9941,41.00098 64.9951,-3.99902 c 52,-3 71.0069,-8.99319 92.0069,-27.99317 33.9999,-32.99996 53.9941,-72.0098 53.9941,-110.00976 v -30 H 3265.0049 3030 v -67.99805 c 0,-84.99991 20.003,-154.99811 63.0029,-217.99805 66,-98.9999 189.9992,-148.00583 318.9991,-126.00586 85.9999,14.99999 133.9961,39.0108 180.996,91.01075 66,72.99992 97.002,165.00012 97.002,285 -1,166.99983 -74.9953,282.99517 -214.9951,334.99509 -30,11.5 -73.0001,18.2451 -116.25,19.9951 z m 525.8642,-18.75 c -52.8749,0.5 -104.6191,-2.7392 -104.6191,-10.2392 0,-6.00001 8.0068,-22.00199 17.0068,-37.00197 13,-18.99998 17.9981,-57.99717 22.9981,-161.99707 3,-74.99993 11.9883,-146.01271 17.9883,-158.0127 6,-11.99998 30.0019,-36.98634 52.0019,-55.98632 l 41.001,-34.01368 L 3900,540 c -56.9999,-23.99998 -109.9951,-124.00399 -109.9951,-209.00391 0,-96.9999 68.9971,-200.99222 161.9971,-241.992184 50.9999,-21.999978 62.0032,-23.00879 333.0029,-24.008789 h 279.9902 l 3.0029,472.998043 2.0069,472.00194 H 4470 4369.9951 V 825 640.00488 h -131.001 c -146.9998,0 -189.997,11.99321 -206.997,57.99317 -5,14.99998 -13.9991,85.99812 -18.9991,157.99804 -5.9999,71.99993 -12.9921,136.00196 -16.9921,142.00196 -4.5,7.49995 -58.5118,11.74605 -111.3868,12.24605 z m -3036.62105,-0.249 c -59.99994,0 -108.00293,-2.9912 -108.00293,-5.9912 0,-3 54.01081,-98.00011 121.01074,-209.99999 66.99993,-111.99989 119.00097,-210.00196 116.00098,-217.00196 -2,-5.99999 -55.00104,-67.00397 -116.00098,-134.0039 C 800.00592,375.99811 750,318.99609 750,315.99609 c 0,-2.99999 49.00299,-5.99121 108.00293,-5.99121 H 966.00586 L 1080,442.00195 1195.0049,574.99512 1197.9932,322.00195 1200,70.004883 h 90 90 V 540 1009.9951 h -90 -90 V 902.00684 794.00391 l -40.0049,-39.00879 c -28,-26.99998 -42.9883,-35.99316 -47.9883,-27.99317 -4,6 -41.002,72.99715 -82.0019,146.99707 l -75.00002,135.99608 z m 701.99705,0 V 660 310.00488 h 90 90 V 660 1009.9951 h -90 z M 416.99707,900 c 42.99996,0 82.00001,-35.002 90,-82.00195 7.99999,-52.99995 -31.99813,-91.99221 -112.99805,-106.99219 -31.99996,-6.99999 -76.00588,-18.00099 -96.00586,-26.00098 l -37.99804,-13.00781 v 56.00098 c 0,76.99992 23.00982,121.00003 80.00976,150 C 364.00486,889.99803 398.99709,900 416.99707,900 Z M 2562.3779,875.12695 c 8.875,0.875 17.1172,0.86817 22.6172,-0.13183 11,-3 28.002,-4.99512 37.002,-4.99512 24.9999,0 79.0098,-49.9932 95.0097,-87.99316 21,-50.99995 17.9902,-182.00494 -5.0097,-235.00489 -29,-63.99993 -52.9952,-81.00488 -124.9951,-85.00488 -52,-3 -66.0001,-0.99705 -90,18.00293 -50,38.99996 -71.001,94.99521 -71.001,184.99512 1,111.99989 38.9952,183.0049 109.9951,205.00488 8,2.5 17.5068,4.25195 26.3818,5.12695 z M 3360,589.99512 h 139.9951 l -5.9912,-26.99707 c -18,-80.99992 -87.0089,-132.0039 -159.0088,-119.00391 -57.9999,10.99999 -114.9902,73.00591 -114.9902,126.00586 0,18.99998 5.9952,19.99512 139.9951,19.99512 z M 4222.998,480 h 146.9971 V 355.00488 229.99512 h -144.9902 c -110.9999,0 -153.0049,4.00001 -175.0049,15 -76.9999,39.99996 -81.998,170.00981 -7.998,215.00976 C 4071.0019,478.00486 4092.9982,480 4222.998,480 Z M 1549.9951,229.99512 V 145.00488 60 h 90 90 v 85.00488 84.99024 h -90 z"
       sodipodi:nodetypes="cccccccccccccccccccccccccccccscccccscccsccscccscccccccccccccssscsssccccccccsccscccscccccsscccccsccccccsscsscccscccccccsccccscscccccccccccccccccccccccccscsscccsscccscscccsccccscccccsccccccccccscccssccscccccscccscccccsssccscccscccccccccscccsssscssscccccccccccccccccscccccccccsccccscsscsccccccsscccssscccsccsccccccccc"
       style="fill:#ffffff" />
  </g>
</svg>
